<mxfile host="app.diagrams.net" modified="2023-06-05T08:20:26.376Z" agent="Mozilla/5.0 (Windows NT 10.0; Win64; x64) AppleWebKit/537.36 (KHTML, like Gecko) Chrome/113.0.0.0 Safari/537.36" etag="y3Ge6g5ZDPfLWb3pIVbV" version="21.3.7" type="github">
  <diagram name="Page-1" id="-o-nkbnLB4MLkm3PsVUs">
    <mxGraphModel dx="880" dy="494" grid="1" gridSize="10" guides="1" tooltips="1" connect="1" arrows="1" fold="1" page="1" pageScale="1" pageWidth="850" pageHeight="1100" math="0" shadow="0">
      <root>
        <mxCell id="0" />
        <mxCell id="1" parent="0" />
        <mxCell id="Hh3v14ARGNafb3q7GGv0-3" style="rounded=0;orthogonalLoop=1;jettySize=auto;html=1;exitX=1;exitY=0.3333333333333333;exitDx=0;exitDy=0;exitPerimeter=0;entryX=0.025;entryY=0.763;entryDx=0;entryDy=0;entryPerimeter=0;" edge="1" parent="1" source="Hh3v14ARGNafb3q7GGv0-1" target="Hh3v14ARGNafb3q7GGv0-2">
          <mxGeometry relative="1" as="geometry" />
        </mxCell>
        <mxCell id="Hh3v14ARGNafb3q7GGv0-5" style="rounded=0;orthogonalLoop=1;jettySize=auto;html=1;exitX=1;exitY=0.3333333333333333;exitDx=0;exitDy=0;exitPerimeter=0;entryX=0.017;entryY=0.313;entryDx=0;entryDy=0;entryPerimeter=0;" edge="1" parent="1" source="Hh3v14ARGNafb3q7GGv0-1" target="Hh3v14ARGNafb3q7GGv0-4">
          <mxGeometry relative="1" as="geometry" />
        </mxCell>
        <mxCell id="Hh3v14ARGNafb3q7GGv0-1" value="Actor" style="shape=umlActor;verticalLabelPosition=bottom;verticalAlign=top;html=1;outlineConnect=0;" vertex="1" parent="1">
          <mxGeometry x="70" y="240" width="30" height="60" as="geometry" />
        </mxCell>
        <mxCell id="Hh3v14ARGNafb3q7GGv0-6" style="rounded=0;orthogonalLoop=1;jettySize=auto;html=1;exitX=1;exitY=1;exitDx=0;exitDy=0;entryX=0.5;entryY=0;entryDx=0;entryDy=0;" edge="1" parent="1" source="Hh3v14ARGNafb3q7GGv0-2" target="Hh3v14ARGNafb3q7GGv0-4">
          <mxGeometry relative="1" as="geometry" />
        </mxCell>
        <mxCell id="Hh3v14ARGNafb3q7GGv0-2" value="" style="ellipse;whiteSpace=wrap;html=1;" vertex="1" parent="1">
          <mxGeometry x="140" y="150" width="120" height="80" as="geometry" />
        </mxCell>
        <mxCell id="Hh3v14ARGNafb3q7GGv0-4" value="" style="ellipse;whiteSpace=wrap;html=1;" vertex="1" parent="1">
          <mxGeometry x="210" y="290" width="120" height="80" as="geometry" />
        </mxCell>
      </root>
    </mxGraphModel>
  </diagram>
</mxfile>
